<?xml version="1.0" encoding="UTF-8" standalone="no"?>
<svg
   xmlns:dc="http://purl.org/dc/elements/1.1/"
   xmlns:cc="http://creativecommons.org/ns#"
   xmlns:rdf="http://www.w3.org/1999/02/22-rdf-syntax-ns#"
   xmlns:svg="http://www.w3.org/2000/svg"
   xmlns="http://www.w3.org/2000/svg"
   version="1.1"
   id="svg4309"
   viewBox="0 0 1000 1000"
   height="1000"
   width="1000">
  <defs
     id="defs4311" />
  <metadata
     id="metadata4314">
    <rdf:RDF>
      <cc:Work
         rdf:about="">
        <dc:format>image/svg+xml</dc:format>
        <dc:type
           rdf:resource="http://purl.org/dc/dcmitype/StillImage" />
        <dc:title></dc:title>
      </cc:Work>
    </rdf:RDF>
  </metadata>
  <g
     transform="translate(0,-52.362161)"
     id="layer1">
    <path
       id="path4147"
       d="m 488.0553,1009.1415 c -25.48743,-6.0236 -46.11517,-22.7514 -59.15726,-47.9718 -8.00213,-15.4746 -16.31822,-18.7243 -71.96677,-28.12264 -34.6056,-5.84447 -67.48152,-12.41621 -73.05766,-14.60476 -7.40018,-2.90432 -13.7895,5.44096 -23.65636,30.89656 -15.22145,39.27094 -31.83612,54.23454 -45.28503,40.78554 -6.78194,-6.7819 -6.79201,-10.817 -0.0473,-20.1248 19.70358,-27.20341 28.43764,-57.68768 28.43764,-99.25731 l 0,-44.11573 -31.91986,-15.00354 C 168.20916,791.31911 124.7573,744.37002 108.19784,700.111 100.73305,680.15923 94.625448,659.00706 94.625448,653.10568 c 0,-8.50284 -4.559189,-9.8157 -21.96662,-6.32571 C 6.1326746,660.11756 0,660.02293 0,645.65264 0,629.71941 8.0087591,625.88174 53.989355,619.78225 l 33.877123,-4.49396 1.267305,-46.44197 c 0.696984,-25.54305 1.457367,-54.80617 1.68974,-65.0291 0.375798,-16.54499 -2.91933,-19.39254 -29.992885,-25.91743 -22.910643,-5.5216 -30.415319,-10.52472 -30.415319,-20.27688 0,-14.06391 9.482551,-15.36089 52.136251,-7.13091 24.81937,4.78893 25.29189,4.46524 42.20646,-28.91402 9.40827,-18.56645 22.86502,-39.21386 29.90387,-45.8832 8.5978,-8.14643 14.41335,-26.54412 17.7205,-56.05921 10.51627,-93.85269 54.32379,-223.04568 75.63168,-223.04568 14.91311,0 108.9764,94.31142 121.84688,122.16827 7.84114,16.97141 15.54514,24.99085 22.15871,23.0661 29.51658,-8.5903 148.37289,-17.34735 217.75828,-16.04395 l 79.19959,1.48778 32.32324,-30.21863 c 41.73111,-39.01393 128.71128,-95.7673 140.08431,-91.4031 4.8476,1.8602 10.68903,13.51001 12.98092,25.88844 6.82912,36.88371 17.57377,148.48319 17.69956,183.83715 0.0906,25.3853 5.39358,41.61302 23.19276,70.96908 12.69157,20.93209 26.98704,57.06799 31.76758,80.30191 8.59091,41.75213 8.95725,42.2435 31.49169,42.2435 17.75044,0 22.3134,2.52488 20.60394,11.40122 -1.20755,6.27062 -11.45198,13.79977 -22.76532,16.73133 -18.41439,4.77169 -21.47572,9.41962 -29.21723,44.3602 -4.75615,21.46653 -9.96528,42.14016 -11.5758,45.94133 -1.61059,3.80124 9.85659,12.92583 25.48256,20.27688 32.2908,15.1913 46.32445,32.68146 35.1712,43.83442 -5.07369,5.07395 -15.95176,2.17368 -37.02234,-9.87078 -16.41069,-9.38076 -31.82977,-17.09206 -34.26462,-17.13735 -2.43484,-0.0676 -12.09691,12.84541 -21.47132,28.64447 -18.14673,30.58362 -58.8337,74.8325 -83.93479,91.28246 -12.53949,8.21822 -15.18414,16.05591 -15.07376,44.67402 0.20614,53.46811 12.2281,124.66496 24.11292,142.80326 11.40622,17.4077 8.15252,30.4627 -7.59247,30.4627 -13.59781,0 -27.31174,-24.6189 -36.94671,-66.32502 -6.07468,-26.29573 -10.86955,-34.92219 -17.90874,-32.22131 -31.11014,11.93835 -91.89651,26.79387 -123.93573,30.28892 -31.62552,3.45045 -38.37353,6.71638 -45.75843,22.14776 -9.99103,20.87645 -45.72335,52.86855 -59.04945,52.86855 -4.9869,0 -13.11772,1.2038 -18.06853,2.6746 -4.95087,1.4714 -19.01106,0.3109 -31.24498,-2.5826 z m 53.57773,-40.0307 15.93445,-12.90281 -18.5651,-8.45884 c -19.46716,-8.86978 -24.98923,-29.41364 -9.50357,-35.35612 4.98392,-1.91278 13.34813,-0.76376 18.58714,2.55286 24.99862,15.82543 27.25077,-7.06717 3.07377,-31.24464 -24.42675,-24.42621 -58.20039,-22.66888 -80.81391,4.20542 -9.62402,11.43751 -17.4982,26.50188 -17.4982,33.47713 0,48.555 52.74665,76.9095 88.78542,47.727 z m -72.16595,-41.61825 c -2.45033,-3.96481 -3.00558,-8.65823 -1.23385,-10.43043 1.77166,-1.77152 5.02231,1.4721 7.22364,7.20911 4.57027,11.90996 0.67522,14.00456 -5.98979,3.22132 z m 15.60772,-9.47336 c -15.63266,-13.76124 -16.47848,-16.10457 -5.51403,-15.27863 7.123,0.53396 16.12742,7.94719 20.00983,16.46753 8.64661,18.97781 8.38902,18.95618 -14.4958,-1.1889 z M 664.31545,810.6254 c 92.21817,-17.63345 160.44818,-57.17674 201.42843,-116.7394 19.10055,-27.76175 19.70852,-30.4775 9.17833,-41.00789 -10.53019,-10.53019 -10.49004,-11.85272 0.60628,-19.96672 6.53611,-4.77932 14.3246,-7.18112 17.30787,-5.33734 6.83026,4.22137 16.61433,-14.13116 22.73707,-42.64931 4.13344,-19.25242 2.97955,-21.96662 -9.33872,-21.96662 -18.72705,0 -19.37145,-26.91107 -0.76092,-31.77786 7.31177,-1.91204 14.91655,-8.5884 16.89956,-14.83632 4.5892,-14.45937 -13.32029,-83.91965 -27.03435,-104.84992 l -10.43814,-15.9306 -41.98354,13.29968 C 733.08422,443.6564 628.16036,389.2609 615.96787,291.20616 l -4.44888,-35.78071 -57.36904,2.04458 c -57.50158,2.04932 -155.41059,12.51415 -177.05859,18.92462 -8.6808,2.57057 -16.4749,-6.31652 -31.40659,-35.81093 -18.14902,-35.84939 -85.14194,-109.39809 -92.73273,-101.80731 -12.95523,12.95524 -44.45874,128.06729 -48.0614,175.61366 -3.80422,50.20664 -6.53916,58.76105 -26.69445,83.49465 -12.35085,15.15636 -26.99346,38.41658 -32.53925,51.68942 -9.56407,22.89023 -9.33656,24.62823 4.42015,33.76235 19.89345,13.2087 11.93822,35.42128 -10.65502,29.75078 -14.8347,-3.72331 -16.19136,-1.61052 -20.15515,31.38814 -6.97397,58.05879 -5.91707,64.6341 10.77128,67.01508 20.29175,2.895 24.40755,25.57773 5.5366,30.51258 -16.44462,4.30039 -14.92912,13.52941 10.54526,64.22006 28.37087,56.45353 100.92621,98.85384 193.35451,112.99359 58.59545,8.9644 261.03089,3.61063 324.84088,-8.59132 z M 454.47922,733.16772 c -6.25001,-16.23908 11.8515,-24.66682 52.98152,-24.66682 40.1589,0 56.23131,8.52778 49.43815,26.23085 -4.27025,11.12795 -98.08616,9.69505 -102.41967,-1.56403 z M 323.19758,600.1324 c -11.86259,-26.03545 1.88588,-50.6922 28.26563,-50.6922 26.37974,0 40.12821,24.65675 28.26563,50.6922 -5.75688,12.63506 -12.88684,16.8974 -28.26563,16.8974 -15.3788,0 -22.50876,-4.26234 -28.26563,-16.8974 z m 245.90413,-11.49023 c -4.46091,-4.46092 -8.11075,-18.08988 -8.11075,-30.28656 0,-17.82406 3.21098,-22.98168 16.36284,-26.28256 25.99975,-6.52557 40.31888,-0.79255 47.25067,18.91786 5.09544,14.48891 3.84632,21.18461 -5.97715,32.03943 -13.85905,15.31411 -37.1807,17.95673 -49.52561,5.61183 z M 250.78363,509.8865 c -18.96773,-12.85764 -2.75718,-28.0359 29.94274,-28.0359 34.8694,0 53.32812,-7.81829 76.28878,-32.31249 11.009,-11.74437 17.81858,-14.61017 22.82352,-9.60522 12.04805,12.04804 -0.13112,40.06846 -23.76524,54.67498 -25.1651,15.55291 -90.82866,25.08135 -105.2898,15.27863 z m 394.69433,-13.59775 c -53.99733,-15.49146 -98.00492,-40.74361 -98.00492,-56.2365 0,-16.50788 12.83081,-15.45544 52.11206,4.27443 29.79241,14.96387 59.55921,24.07021 111.16731,34.00859 13.99713,2.69547 17.17986,6.44892 14.41936,17.00507 -4.38027,16.75012 -23.80938,16.98134 -79.69381,0.94841 z"
       style="fill:#000000" />
  </g>
</svg>
